<svg width="51" height="50" fill="none" xmlns="http://www.w3.org/2000/svg"><circle cx="25.419" cy="25" r="25" fill="#FC3C3A"/><path fill-rule="evenodd" clip-rule="evenodd" d="M30.05 24.29l-6.7-4.188a.838.838 0 00-1.282.71v8.376a.838.838 0 001.281.71l6.7-4.188a.838.838 0 000-1.42h.001zm-6.307 3.387v-5.353l4.283 2.677-4.283 2.676z" fill="#fff"/><path fill-rule="evenodd" clip-rule="evenodd" d="M35.525 14.112H15.313a4.193 4.193 0 00-4.189 4.188v13.4a4.193 4.193 0 004.188 4.188h20.213a4.193 4.193 0 004.188-4.188V18.3a4.193 4.193 0 00-4.188-4.188zm2.513 17.589a2.516 2.516 0 01-2.513 2.511H15.313a2.516 2.516 0 01-2.514-2.513v-13.4a2.516 2.516 0 012.513-2.513h20.213a2.516 2.516 0 012.513 2.513v13.402z" fill="#fff"/></svg>