<svg width="3300" height="3300" fill="none" xmlns="http://www.w3.org/2000/svg"><circle cx="1650" cy="1650" r="1650" fill="#fff"/><path fill-rule="evenodd" clip-rule="evenodd" d="M1650 0c911.27 0 1650 738.727 1650 1650 0 911.27-738.73 1650-1650 1650C738.727 3300 0 2561.27 0 1650 0 738.727 738.727 0 1650 0zm-571.21 2013.23c-114.354 0-207.285 93.24-207.285 206.88 0 114.22 92.921 206.48 207.285 206.48 114.71 0 207.57-92.26 207.57-206.48 0-113.64-92.84-206.88-207.57-206.88zm-207.087-612.8v298.47c194.357 0 376.997 76 514.567 213.69 137.45 137.29 213.33 320.82 213.33 515.92h299.73c0-566.81-461.19-1027.99-1027.627-1027.99v-.09zm.376-528.964v298.524c693.071 0 1257.091 564.61 1257.091 1258.45l299.32.03c0-858.3-698.33-1556.975-1556.391-1556.975l-.02-.029z" fill="#F26522"/></svg>