<svg width="51" height="50" fill="none" xmlns="http://www.w3.org/2000/svg"><circle cx="25.419" cy="25" r="25" fill="#8940FC"/><path fill-rule="evenodd" clip-rule="evenodd" d="M37.956 28.231l-2.37-2.844a.49.49 0 00-.73 0l-2.37 2.844a.474.474 0 00.365.777h.754a7.729 7.729 0 01-6.44 5.574V22.373h4.265a.474.474 0 00.474-.474V20a.474.474 0 00-.474-.474h-4.266v-1.219a3.792 3.792 0 10-2.844 0v1.223h-4.265c-.26 0-.471.21-.474.47v1.9c0 .262.213.474.474.474h4.266v12.209a7.73 7.73 0 01-6.44-5.574h.754a.474.474 0 00.365-.777l-2.37-2.844a.49.49 0 00-.73 0l-2.37 2.843a.474.474 0 00.364.777h1.057a10.483 10.483 0 009.37 8.446v.56c.002.124.05.244.137.335l.948.948a.48.48 0 00.673 0l.948-.948a.489.489 0 00.137-.336v-.559a10.483 10.483 0 009.37-8.446h1.057a.474.474 0 00.365-.777zM25.742 16.212a1.422 1.422 0 110-2.844 1.422 1.422 0 010 2.844z" fill="#fff"/></svg>