<svg width="32" height="31" xmlns="http://www.w3.org/2000/svg"><g fill-rule="evenodd" clip-rule="evenodd" fill="#fff"><path d="M16.004 22.512a7.42 7.42 0 01-7.5-7.5 7.421 7.421 0 017.5-7.5 7.42 7.42 0 017.5 7.5 7.42 7.42 0 01-7.5 7.5zm0-12a4.4 4.4 0 00-4.5 4.5 4.4 4.4 0 004.5 4.5 4.4 4.4 0 004.5-4.5 4.4 4.4 0 00-4.5-4.5z"/><path d="M23.432 30.31h-7.577C7.485 30.31.7 23.525.7 15.155S7.485 0 15.855 0 31.01 6.785 31.01 15.155v2.273a5.304 5.304 0 11-10.608 0v-2.273h3.031v2.273a2.273 2.273 0 004.546 0v-2.273c0-6.696-5.428-12.124-12.124-12.124-6.696 0-12.124 5.428-12.124 12.124 0 6.696 5.428 12.124 12.124 12.124h7.577v3.031z"/></g></svg>