<svg width="34" height="29" fill="none" xmlns="http://www.w3.org/2000/svg"><path fill-rule="evenodd" clip-rule="evenodd" d="M17.2 26.512a16.058 16.058 0 01-7.641-1.875 18.2 18.2 0 01-5.109-4.125 22.048 22.048 0 01-3.75-6 22.184 22.184 0 013.75-6 18.2 18.2 0 015.109-4.125A16.057 16.057 0 0117.2 2.512a16.057 16.057 0 017.641 1.875 18.2 18.2 0 015.109 4.125 22.046 22.046 0 013.75 6 22.185 22.185 0 01-3.75 6 18.2 18.2 0 01-5.109 4.125 16.058 16.058 0 01-7.641 1.875zm0-21c-7.827 0-11.847 6.3-13.213 9.005 1.351 2.704 5.344 8.995 13.213 8.995 7.826 0 11.848-6.3 13.214-9.006-1.35-2.703-5.341-8.994-13.214-8.994zm0 15a6 6 0 110-12 6 6 0 010 12zm0-9a3 3 0 100 6 3 3 0 000-6z" fill="#fff"/><path d="M28.92 2L5 26.839" stroke="#fff" stroke-width="3" stroke-linecap="round"/></svg>