<svg width="34" height="40" fill="none" xmlns="http://www.w3.org/2000/svg"><path fill-rule="evenodd" clip-rule="evenodd" d="M33.121 31.138a21.363 21.363 0 01-2.114 3.8 19.31 19.31 0 01-2.723 3.291 5.282 5.282 0 01-3.5 1.541 8.77 8.77 0 01-3.232-.772 9.275 9.275 0 00-3.48-.769 9.59 9.59 0 00-3.578.769 9.627 9.627 0 01-3.092.813 4.973 4.973 0 01-3.578-1.582 20.276 20.276 0 01-2.848-3.407 23.565 23.565 0 01-3.011-5.982A21.898 21.898 0 01.7 21.71a13.018 13.018 0 011.71-6.81 10.028 10.028 0 013.58-3.623 9.631 9.631 0 014.841-1.366c1.288.076 2.554.37 3.744.871a12.04 12.04 0 002.97.873 17.776 17.776 0 003.293-1.029 10.886 10.886 0 014.476-.795 9.5 9.5 0 017.445 3.92 8.28 8.28 0 00-4.392 7.523 8.3 8.3 0 002.725 6.253 8.958 8.958 0 002.723 1.786c-.219.633-.45 1.24-.694 1.822v.003zM25.535 1.287a8.386 8.386 0 01-2.15 5.5c-1.728 2.02-3.818 3.187-6.084 3a6.123 6.123 0 01-.046-.745 8.617 8.617 0 012.28-5.559 8.782 8.782 0 012.78-2.083 8.284 8.284 0 013.179-.9c.028.261.042.523.041.786v.001z" fill="#fff"/></svg>