<svg width="35" height="35" fill="none" xmlns="http://www.w3.org/2000/svg"><path fill-rule="evenodd" clip-rule="evenodd" d="M34.22 17.99a20.1 20.1 0 00-.3-3.471l-16.122-.002V21.1h9.235a7.914 7.914 0 01-3.418 5.2v4.272h5.51A16.7 16.7 0 0034.22 17.99z" fill="#4285F4"/><path fill-rule="evenodd" clip-rule="evenodd" d="M17.798 34.696a16.367 16.367 0 0011.333-4.128l-5.512-4.271a10.37 10.37 0 01-15.414-5.422H2.519v4.4a17.1 17.1 0 0015.279 9.421z" fill="#34A853"/><path fill-rule="evenodd" clip-rule="evenodd" d="M8.198 20.875a10.241 10.241 0 010-6.546V9.925H2.519a17.112 17.112 0 000 15.354l5.679-4.404z" fill="#FBBC04"/><path fill-rule="evenodd" clip-rule="evenodd" d="M17.798 7.267a9.29 9.29 0 016.559 2.563l4.881-4.881A16.433 16.433 0 0017.798.501 17.094 17.094 0 002.519 9.924l5.679 4.4a10.227 10.227 0 019.6-7.061v.004z" fill="#EA4335"/></svg>