<svg width="26" height="15" viewBox="0 0 26 15" fill="none" xmlns="http://www.w3.org/2000/svg">
<path fill-rule="evenodd" clip-rule="evenodd" d="M12.994 4.9117L22.7212 14.2187C23.2871 14.7481 24.1664 14.7481 24.7322 14.2187L25.5846 13.4027C25.8497 13.153 26 12.805 26 12.4409C26 12.0767 25.8497 11.7287 25.5846 11.4791L14.0043 0.396617C13.4356 -0.132508 12.5548 -0.132508 11.986 0.396617L0.415372 11.4669C0.150319 11.7166 3.01861e-06 12.0646 3.01861e-06 12.4287C3.01861e-06 12.7929 0.150319 13.1408 0.415372 13.3905L1.2679 14.2066C1.83329 14.7371 2.71354 14.7371 3.27893 14.2066L12.994 4.9117Z" fill="white"/>
</svg>
