<svg width="34" height="29" viewBox="0 0 34 29" fill="none" xmlns="http://www.w3.org/2000/svg">
<g>
<path fill-rule="evenodd" clip-rule="evenodd" d="M17.2 26.5121C14.5369 26.5304 11.9111 25.8861 9.55902 24.6371C7.62 23.5832 5.88885 22.1855 4.45001 20.5121C2.88513 18.727 1.61884 16.7009 0.700012 14.5121C1.62097 12.3244 2.88708 10.2986 4.45001 8.5121C5.88885 6.8387 7.62 5.44099 9.55902 4.3871C11.9111 3.13814 14.5369 2.49379 17.2 2.5121C19.8631 2.49379 22.4889 3.13814 24.841 4.3871C26.78 5.44099 28.5112 6.8387 29.95 8.5121C31.5149 10.2972 32.7812 12.3233 33.7 14.5121C32.7791 16.6998 31.5129 18.7256 29.95 20.5121C28.5112 22.1855 26.78 23.5832 24.841 24.6371C22.4889 25.8861 19.8631 26.5304 17.2 26.5121ZM17.2 5.5121C9.37299 5.5121 5.35303 11.8121 3.987 14.5171C5.33801 17.2211 9.33099 23.5121 17.2 23.5121C25.026 23.5121 29.048 17.2121 30.414 14.5061C29.064 11.8031 25.073 5.5121 17.2 5.5121ZM17.2 20.5121C13.8863 20.5121 11.2 17.8258 11.2 14.5121C11.2 11.1984 13.8863 8.5121 17.2 8.5121C20.5137 8.5121 23.2 11.1984 23.2 14.5121C23.1968 17.8243 20.5125 20.5087 17.2001 20.5121H17.2ZM17.2 11.5121C15.5432 11.5121 14.2 12.8552 14.2 14.5121C14.2 16.169 15.5432 17.5121 17.2 17.5121C18.8569 17.5121 20.2 16.169 20.2 14.5121C20.2 12.8552 18.8569 11.5121 17.2 11.5121Z" fill="white"/>
</g>
</svg>

