<svg width="27" height="32" viewBox="0 0 27 32" xmlns="http://www.w3.org/2000/svg">
<g>
<path fill-rule="evenodd" clip-rule="evenodd" d="M13.152 15.6C15.0935 15.6267 16.9604 14.8531 18.314 13.461C19.7059 12.1076 20.4795 10.2412 20.453 8.29996C20.4797 6.3585 19.7061 4.49162 18.314 3.13798C15.4633 0.287666 10.8417 0.287666 7.99103 3.13798C6.59888 4.49152 5.82526 6.35847 5.85199 8.29996C5.82526 10.2416 6.59888 12.1085 7.99103 13.462C9.34466 14.8533 11.2111 15.6265 13.152 15.6V15.6ZM9.24701 4.39497C10.2827 3.35886 11.6876 2.77677 13.1525 2.77677C14.6174 2.77677 16.0223 3.35886 17.058 4.39497C18.1178 5.41441 18.7042 6.82975 18.676 8.29996C18.7045 9.77052 18.118 11.1863 17.058 12.206C16.0224 13.2421 14.6175 13.8242 13.1525 13.8242C11.6876 13.8242 10.2827 13.2421 9.24701 12.206C8.18652 11.1866 7.59967 9.77073 7.62799 8.29996C7.59967 6.82923 8.18652 5.4134 9.24701 4.39399V4.39497Z"/>
<path fill-rule="evenodd" clip-rule="evenodd" d="M25.9261 24.307C25.8783 23.6648 25.7962 23.0255 25.68 22.392C25.5655 21.7404 25.4081 21.097 25.209 20.466C25.008 19.8403 24.7425 19.237 24.417 18.666C24.097 18.0922 23.6951 17.568 23.224 17.11C22.7275 16.6434 22.145 16.2776 21.5091 16.033C20.8112 15.7627 20.0684 15.6269 19.32 15.633C18.8837 15.6789 18.4707 15.8528 18.133 16.133C17.7771 16.365 17.3611 16.633 16.8971 16.933C16.3946 17.2315 15.8572 17.4666 15.297 17.633C14.0271 18.0545 12.655 18.0545 11.385 17.633C10.8248 17.4668 10.2873 17.2317 9.78506 16.933C9.32504 16.639 8.90903 16.3711 8.54806 16.133C8.21078 15.8529 7.79806 15.6789 7.36203 15.633C6.61362 15.6267 5.87088 15.7625 5.17306 16.033C4.53702 16.2775 3.95456 16.6433 3.45804 17.11C2.98709 17.5678 2.58517 18.0916 2.26504 18.665C1.93967 19.2361 1.67428 19.8393 1.47305 20.465C1.27414 21.0957 1.11679 21.7387 1.00204 22.39C0.885649 23.0238 0.803496 23.6634 0.756071 24.306C0.716032 24.885 0.695036 25.487 0.695036 26.096C0.631743 27.5197 1.17502 28.9036 2.19003 29.904C3.23904 30.8606 4.62362 31.3639 6.04202 31.304H20.641C22.0595 31.3637 23.444 30.8606 24.493 29.904C25.5101 28.9046 26.0553 27.5205 25.993 26.096C25.993 25.485 25.972 24.883 25.932 24.306L25.9261 24.307ZM23.268 28.618C22.5492 29.2608 21.6037 29.5905 20.641 29.534H6.04703C5.0845 29.5907 4.13907 29.2614 3.42001 28.619C2.76028 27.9517 2.41714 27.0344 2.47702 26.098C2.47702 25.53 2.49606 24.969 2.53305 24.431C2.57602 23.8524 2.65011 23.2766 2.75503 22.706C2.85568 22.1309 2.99399 21.563 3.16904 21.006C3.33298 20.4985 3.54873 20.0092 3.81302 19.546C4.04831 19.1223 4.34372 18.735 4.69003 18.396C5.0209 18.088 5.40842 17.8473 5.83102 17.687C6.27829 17.5157 6.75217 17.4243 7.23105 17.417C7.29306 17.45 7.40402 17.517 7.58304 17.63C7.94803 17.868 8.36905 18.139 8.83401 18.437C9.4628 18.8198 10.1371 19.1221 10.841 19.337C12.4648 19.8723 14.2174 19.8723 15.841 19.337C16.5457 19.1222 17.2206 18.8198 17.8501 18.437C18.326 18.137 18.735 17.869 19.1001 17.631C19.279 17.514 19.39 17.451 19.4521 17.418C19.9309 17.4254 20.4048 17.5167 20.852 17.688C21.2746 17.8485 21.6621 18.0892 21.993 18.397C22.3395 18.7359 22.6349 19.1233 22.87 19.547C23.1345 20.0102 23.3503 20.4994 23.5141 21.007C23.6892 21.564 23.8275 22.1319 23.9281 22.707C24.0327 23.2776 24.1068 23.8535 24.1501 24.432V24.432C24.188 24.968 24.2071 25.532 24.2071 26.098C24.2671 27.0344 23.9239 27.9519 23.264 28.619L23.268 28.618Z"/>
</g>
</svg>
