<svg width="3300" height="3300" viewBox="0 0 3300 3300" fill="none" xmlns="http://www.w3.org/2000/svg">
<circle cx="1650" cy="1650" r="1650" fill="white"/>
<path fill-rule="evenodd" clip-rule="evenodd" d="M1650 0C2561.27 0 3300 738.727 3300 1650C3300 2561.27 2561.27 3300 1650 3300C738.727 3300 0 2561.27 0 1650C0 738.727 738.727 0 1650 0ZM1078.79 2013.23C964.436 2013.23 871.505 2106.47 871.505 2220.11C871.505 2334.33 964.426 2426.59 1078.79 2426.59C1193.5 2426.59 1286.36 2334.33 1286.36 2220.11C1286.36 2106.47 1193.52 2013.23 1078.79 2013.23ZM871.703 1400.43V1698.9C1066.06 1698.9 1248.7 1774.9 1386.27 1912.59C1523.72 2049.88 1599.6 2233.41 1599.6 2428.51H1899.33C1899.33 1861.7 1438.14 1400.52 871.703 1400.52V1400.43ZM872.079 871.466V1169.99C1565.15 1169.99 2129.17 1734.6 2129.17 2428.44L2428.49 2428.47C2428.49 1570.17 1730.16 871.495 872.099 871.495L872.079 871.466Z" fill="#F26522"/>
</svg>
