<?xml version="1.0" encoding="utf-8"?><svg viewBox="0 0 34 32" xmlns="http://www.w3.org/2000/svg" xmlns:xlink="http://www.w3.org/1999/xlink"><style>:root>svg{display:none}:root>svg:target{display:block}</style><svg viewBox="0 0 11 7" id="arrow-down" xmlns="http://www.w3.org/2000/svg"><path fill-rule="evenodd" clip-rule="evenodd" d="M5.498 4.373L1.493.54a.606.606 0 00-.828 0l-.35.336a.544.544 0 000 .792l4.767 4.563a.61.61 0 00.831 0l4.764-4.558a.544.544 0 000-.792l-.351-.336a.605.605 0 00-.828 0l-4 3.827z"/></svg><svg viewBox="0 0 26 15" id="arrow-top" xmlns="http://www.w3.org/2000/svg"><path fill-rule="evenodd" clip-rule="evenodd" d="M12.994 4.912l9.727 9.307a1.47 1.47 0 002.011 0l.853-.816a1.321 1.321 0 000-1.924L14.005.397a1.482 1.482 0 00-2.019 0L.416 11.467a1.321 1.321 0 000 1.923l.852.817a1.47 1.47 0 002.01 0l9.716-9.295z"/></svg><svg viewBox="0 0 32 31" id="email" xmlns="http://www.w3.org/2000/svg"><g fill-rule="evenodd" clip-rule="evenodd"><path d="M16.004 22.512a7.42 7.42 0 01-7.5-7.5 7.421 7.421 0 017.5-7.5 7.42 7.42 0 017.5 7.5 7.42 7.42 0 01-7.5 7.5zm0-12a4.4 4.4 0 00-4.5 4.5 4.4 4.4 0 004.5 4.5 4.4 4.4 0 004.5-4.5 4.4 4.4 0 00-4.5-4.5z"/><path d="M23.432 30.31h-7.577C7.485 30.31.7 23.525.7 15.155S7.485 0 15.855 0 31.01 6.785 31.01 15.155v2.273a5.304 5.304 0 11-10.608 0v-2.273h3.031v2.273a2.273 2.273 0 004.546 0v-2.273c0-6.696-5.428-12.124-12.124-12.124-6.696 0-12.124 5.428-12.124 12.124 0 6.696 5.428 12.124 12.124 12.124h7.577v3.031z"/></g></svg><svg viewBox="0 0 34 29" id="password" xmlns="http://www.w3.org/2000/svg"><path fill-rule="evenodd" clip-rule="evenodd" d="M17.2 26.512a16.057 16.057 0 01-7.641-1.875 18.2 18.2 0 01-5.109-4.125 22.048 22.048 0 01-3.75-6 22.185 22.185 0 013.75-6 18.2 18.2 0 015.109-4.125A16.057 16.057 0 0117.2 2.512a16.057 16.057 0 017.641 1.875 18.2 18.2 0 015.109 4.125 22.047 22.047 0 013.75 6 22.185 22.185 0 01-3.75 6 18.2 18.2 0 01-5.109 4.125 16.057 16.057 0 01-7.641 1.875zm0-21c-7.827 0-11.847 6.3-13.213 9.005 1.351 2.704 5.344 8.995 13.213 8.995 7.826 0 11.848-6.3 13.214-9.006-1.35-2.703-5.341-8.994-13.214-8.994zm0 15a6 6 0 110-12 6 6 0 010 12zm0-9a3 3 0 100 6 3 3 0 000-6z"/></svg><svg viewBox="0 0 15 16" id="twit" xmlns="http://www.w3.org/2000/svg"><path fill-rule="evenodd" clip-rule="evenodd" d="M1.545 15.568L12.45 3.021l.4 8.782a.833.833 0 001.665-.076l-.457-10.03A1.666 1.666 0 0012.262.151l-9.976.942a.834.834 0 00.157 1.66l8.77-.847L.286 14.475a.833.833 0 101.259 1.093z"/></svg><svg viewBox="0 0 27 32" id="user" xmlns="http://www.w3.org/2000/svg"><path d="M13.152 15.6a7.064 7.064 0 005.162-2.139A7.064 7.064 0 0020.453 8.3a7.065 7.065 0 00-2.139-5.162 7.3 7.3 0 00-10.323 0A7.064 7.064 0 005.852 8.3a7.064 7.064 0 002.139 5.162 7.066 7.066 0 005.161 2.138zM9.247 4.395a5.522 5.522 0 017.811 0A5.278 5.278 0 0118.676 8.3a5.278 5.278 0 01-1.618 3.906 5.522 5.522 0 01-7.811 0A5.277 5.277 0 017.628 8.3a5.277 5.277 0 011.619-3.906v.001zm16.679 19.912a18.034 18.034 0 00-.246-1.915 15.066 15.066 0 00-.471-1.926 9.505 9.505 0 00-.792-1.8 6.767 6.767 0 00-1.193-1.556 5.264 5.264 0 00-1.715-1.077 5.928 5.928 0 00-2.189-.4c-.436.046-.85.22-1.187.5-.356.232-.772.5-1.236.8a7.08 7.08 0 01-1.6.7 6.21 6.21 0 01-3.912 0 7.056 7.056 0 01-1.6-.7c-.46-.294-.876-.562-1.237-.8a2.22 2.22 0 00-1.186-.5 5.918 5.918 0 00-2.189.4 5.26 5.26 0 00-1.715 1.077 6.774 6.774 0 00-1.193 1.555 9.53 9.53 0 00-.792 1.8c-.199.63-.356 1.274-.471 1.925a17.904 17.904 0 00-.246 1.916 26.06 26.06 0 00-.061 1.79 5.033 5.033 0 001.495 3.808 5.38 5.38 0 003.852 1.4h14.599a5.38 5.38 0 003.852-1.4 5.03 5.03 0 001.5-3.808c0-.611-.021-1.213-.061-1.79l-.006.001zm-2.658 4.311a3.623 3.623 0 01-2.627.916H6.047a3.623 3.623 0 01-2.627-.915 3.287 3.287 0 01-.943-2.521c0-.568.02-1.129.056-1.667.043-.579.117-1.154.222-1.725.1-.575.239-1.143.414-1.7.164-.508.38-.997.644-1.46a5.02 5.02 0 01.877-1.15c.33-.308.718-.549 1.141-.709a4.089 4.089 0 011.4-.27c.062.033.173.1.352.213.365.238.786.509 1.251.807a8.802 8.802 0 002.007.9 7.985 7.985 0 005 0 8.811 8.811 0 002.01-.9c.475-.3.884-.568 1.25-.806.178-.117.289-.18.351-.213a4.09 4.09 0 011.4.27 3.5 3.5 0 011.141.709c.347.339.642.726.877 1.15.264.463.48.952.644 1.46.175.557.314 1.125.414 1.7.105.57.179 1.146.222 1.725.038.536.057 1.1.057 1.666a3.286 3.286 0 01-.943 2.521l.004-.001z" fill-rule="evenodd" clip-rule="evenodd"/></svg></svg>