<?xml version="1.0" encoding="utf-8"?><svg viewBox="0 0 26 15" xmlns="http://www.w3.org/2000/svg" xmlns:xlink="http://www.w3.org/1999/xlink"><style>:root>svg{display:none}:root>svg:target{display:block}</style><svg viewBox="0 0 11 7" id="arrow-down" xmlns="http://www.w3.org/2000/svg"><path fill-rule="evenodd" clip-rule="evenodd" d="M5.498 4.373L1.493.54a.606.606 0 00-.828 0l-.35.336a.544.544 0 000 .792l4.767 4.563a.61.61 0 00.831 0l4.764-4.558a.544.544 0 000-.792l-.351-.336a.605.605 0 00-.828 0l-4 3.827z"/></svg><svg viewBox="0 0 26 15" id="arrow-top" xmlns="http://www.w3.org/2000/svg"><path fill-rule="evenodd" clip-rule="evenodd" d="M12.994 4.912l9.727 9.307a1.47 1.47 0 002.011 0l.853-.816a1.321 1.321 0 000-1.924L14.005.397a1.482 1.482 0 00-2.019 0L.416 11.467a1.321 1.321 0 000 1.923l.852.817a1.47 1.47 0 002.01 0l9.716-9.295z"/></svg></svg>