<svg width="32" height="32" fill="none" xmlns="http://www.w3.org/2000/svg"><circle cx="16" cy="16" r="16" fill="#FFD93B"/><path fill-rule="evenodd" clip-rule="evenodd" d="M25.793 20.985a10.613 10.613 0 01-19.58 0 1.124 1.124 0 011.1-1.57c5.784.367 11.586.367 17.37 0a1.132 1.132 0 011.11 1.57z" fill="#3E4347"/><path fill-rule="evenodd" clip-rule="evenodd" d="M31.573 16a15.573 15.573 0 01-27.7 9.777c6.196 4.998 15.163 4.52 20.792-1.109 5.628-5.628 6.106-14.596 1.108-20.791A15.556 15.556 0 0131.573 16z" fill="#F4C534"/><ellipse cx="9.58" cy="11.713" rx="5.655" ry="5.66" fill="#fff"/><path fill-rule="evenodd" clip-rule="evenodd" d="M13.629 11.354a2.866 2.866 0 11-2.861-2.86 2.856 2.856 0 012.861 2.86z" fill="#3E4347"/><path fill-rule="evenodd" clip-rule="evenodd" d="M12.413 10.81c-.195.2-.6.107-.905-.2-.305-.307-.4-.7-.2-.905.2-.205.6-.1.905.2.305.3.404.71.2.905z" fill="#fff"/><ellipse cx="22.42" cy="11.713" rx="5.655" ry="5.66" fill="#fff"/><path fill-rule="evenodd" clip-rule="evenodd" d="M18.091 11.354a2.866 2.866 0 102.861-2.86 2.856 2.856 0 00-2.86 2.86z" fill="#3E4347"/><path fill-rule="evenodd" clip-rule="evenodd" d="M19.307 10.81c.195.2.6.107.905-.2.305-.307.4-.7.2-.905-.2-.205-.6-.1-.905.2-.305.3-.408.71-.2.905zM7.313 19.416a1.08 1.08 0 00-.2.015c1.807 2.447 5.1 2.582 8.883 2.582 3.783 0 7.076-.135 8.883-2.582a1.136 1.136 0 00-.2-.015 137.21 137.21 0 01-17.366 0z" fill="#fff"/><path fill-rule="evenodd" clip-rule="evenodd" d="M15.998 27.501c1.564.001 3.11-.345 4.524-1.013a4.5 4.5 0 00-1.278-2.918 2.233 2.233 0 00-2.319-.53c-.764.265-1.568.4-2.377.399a3.072 3.072 0 00-3 2.5 4.379 4.379 0 00-.05.559 10.567 10.567 0 004.5 1.003z" fill="#E24B4B"/></svg>