<svg width="44" height="43" fill="none" xmlns="http://www.w3.org/2000/svg"><path fill-rule="evenodd" clip-rule="evenodd" d="M13.574 12.986l7.432-11.92a.69.69 0 011.2 0l7.427 11.92H13.574z" fill="#955BA5"/><path fill-rule="evenodd" clip-rule="evenodd" d="M9.361 2.161a.72.72 0 01-.72-.72v-.72a.72.72 0 111.44 0v.72a.72.72 0 01-.72.72zm0 3.6a.72.72 0 01-.72-.72v-.72a.72.72 0 111.44 0v.72a.72.72 0 01-.72.72zM7.92 3.601H7.2a.72.72 0 010-1.44h.72a.72.72 0 110 1.44zm3.602 0h-.72a.72.72 0 110-1.44h.72a.72.72 0 110 1.44zm-8.642 6.48a.72.72 0 01-.72-.72v-.72a.72.72 0 111.44 0v.72a.72.72 0 01-.72.72zm0 3.606a.72.72 0 01-.72-.72v-.72a.72.72 0 011.44 0v.72a.72.72 0 01-.72.72zm-1.44-2.165H.72a.72.72 0 010-1.44h.72a.72.72 0 110 1.44zm3.601 0h-.72a.72.72 0 010-1.44h.72a.72.72 0 110 1.44zm28.084-7.921a.72.72 0 01-.72-.72v-.72a.72.72 0 011.44 0v.72a.72.72 0 01-.72.72zm0 3.6a.72.72 0 01-.72-.72v-.72a.72.72 0 011.44 0v.72a.72.72 0 01-.72.72zm-1.44-2.16h-.72a.72.72 0 110-1.44h.72a.72.72 0 110 1.44zm3.601 0h-.72a.72.72 0 110-1.44h.72a.72.72 0 110 1.44zm5.04 5.761a.72.72 0 01-.72-.72v-.72a.72.72 0 111.44 0v.72a.72.72 0 01-.72.72zm0 3.601a.72.72 0 01-.72-.72v-.72a.72.72 0 011.44 0v.72a.72.72 0 01-.72.72zm-1.44-2.161h-.72a.72.72 0 110-1.44h.72a.72.72 0 110 1.44zm3.601 0h-.72a.72.72 0 010-1.44h.72a.72.72 0 010 1.44zm-5.041 14.403a15.843 15.843 0 11-31.686 0 15.843 15.843 0 0131.686 0z" fill="#F0C419"/><path fill-rule="evenodd" clip-rule="evenodd" d="M18.723 23.044a.72.72 0 01-.56-.266 2.88 2.88 0 00-4.642 0 .72.72 0 01-1.12-.906 4.32 4.32 0 016.883 0 .72.72 0 01-.561 1.172z" fill="#E57E25"/><path fill-rule="evenodd" clip-rule="evenodd" d="M12.962 19.443a.72.72 0 01-.683-.947 4.282 4.282 0 014.283-2.653.72.72 0 110 1.44 2.888 2.888 0 00-2.918 1.668.72.72 0 01-.682.492z" fill="#2C2F38"/><path fill-rule="evenodd" clip-rule="evenodd" d="M30.245 23.044a.72.72 0 01-.562-.269 2.88 2.88 0 00-4.64 0 .72.72 0 01-1.12-.906 4.32 4.32 0 016.883 0 .72.72 0 01-.561 1.172v.003z" fill="#E57E25"/><path fill-rule="evenodd" clip-rule="evenodd" d="M30.244 19.443a.72.72 0 01-.681-.487 2.9 2.9 0 00-2.92-1.674.72.72 0 110-1.44 4.282 4.282 0 014.284 2.653.72.72 0 01-.683.947v.001z" fill="#2C2F38"/><path fill-rule="evenodd" clip-rule="evenodd" d="M32.402 28.46c0 .5-.007.986-.05 1.482a13.172 13.172 0 01-.216 1.678 7.628 7.628 0 01-1.894 3.845c-.38.437-.808.83-1.274 1.174a10.013 10.013 0 01-2.708 1.47 13.262 13.262 0 01-3.94.755 11.727 11.727 0 01-1.44 0 13.742 13.742 0 01-2.915-.439 12.987 12.987 0 01-1.405-.46 10.011 10.011 0 01-2.326-1.326 7.909 7.909 0 01-1.274-1.174 7.632 7.632 0 01-1.894-3.845 13.19 13.19 0 01-.216-1.678c-.043-.5-.05-.987-.05-1.483.007-.209.007-.418.022-.627 0-.144.007-.3.02-.439.026-.128.038-.258.037-.389 0 0 .252.194.7.5h.007c.36.245.857.554 1.469.893a20.255 20.255 0 003.547 1.586c.454.151.922.288 1.4.4.944.234 1.908.374 2.88.418.187.007.374.014.569.014h.3a14.849 14.849 0 003.449-.432 17.5 17.5 0 001.4-.4 20.255 20.255 0 003.547-1.586 19.362 19.362 0 001.476-.9c.454-.3.7-.5.7-.5-.002.13.01.261.036.39.015.143.02.3.02.438.016.21.016.418.023.627v.007z" fill="#fff"/><path fill-rule="evenodd" clip-rule="evenodd" d="M32.355 29.942a13.19 13.19 0 01-.216 1.678c-.609.422-1.241.81-1.894 1.16-.432.237-.914.474-1.44.712-.703.322-1.424.6-2.16.835-.461.151-.943.288-1.44.4-.946.22-1.91.354-2.88.4-.187 0-.374.007-.569.007h-.3c-.194 0-.382-.007-.569-.007-.97-.046-1.934-.18-2.88-.4a19.308 19.308 0 01-3.6-1.235 20.588 20.588 0 01-1.44-.713 19.603 19.603 0 01-1.894-1.159 13.18 13.18 0 01-.216-1.678.705.705 0 01.526.137 16.22 16.22 0 001.584 1.051c.41.245.893.511 1.44.778a19.64 19.64 0 002.16.907c.461.16.943.31 1.44.432.942.245 1.908.392 2.88.44.187.006.374.013.57.013h.299a14.233 14.233 0 003.449-.453c.5-.122.979-.274 1.44-.432.737-.26 1.459-.562 2.16-.907a19.25 19.25 0 001.44-.778c.548-.32 1.077-.67 1.584-1.05a.705.705 0 01.526-.138z" fill="#E6E7E8"/><path fill-rule="evenodd" clip-rule="evenodd" d="M22.323 30.806v8.058a11.73 11.73 0 01-1.44 0v-8.058c.187.007.375.014.569.014h.3c.197.001.384-.007.57-.014zm-4.32-.416v7.834a.475.475 0 01-.036.2 12.963 12.963 0 01-1.405-.46v-7.77a.683.683 0 01.036-.21c.454.153.923.29 1.405.405zm-3.601-1.29v7.086a.678.678 0 01-.166.454 7.904 7.904 0 01-1.274-1.174v-6.719a.637.637 0 01.094-.346c.4.23.857.468 1.347.7zm15.843-.353v6.718c-.38.437-.808.83-1.274 1.174a.678.678 0 01-.166-.454V29.1c.49-.23.943-.468 1.347-.7a.636.636 0 01.094.346l-.001.002zm-3.604 1.447v7.77a13.284 13.284 0 01-1.405.461.476.476 0 01-.036-.2V30.39c.482-.115.95-.252 1.4-.4a.683.683 0 01.036.21l.005-.006z" fill="#E6E7E8"/><path fill-rule="evenodd" clip-rule="evenodd" d="M8.998 29.25a.716.716 0 01-.666-.979c.088-.216.973-2.137 4.9-2.605a.72.72 0 11.17 1.43c-3.07.367-3.739 1.72-3.744 1.732a.736.736 0 01-.66.422zm25.207.015a.72.72 0 01-.661-.432c-.027-.053-.72-1.368-3.745-1.728a.72.72 0 01.17-1.43c3.93.47 4.815 2.388 4.9 2.605a.72.72 0 01-.668.99l.004-.005z" fill="#E57E25"/><path fill-rule="evenodd" clip-rule="evenodd" d="M25.96 7.093a15.809 15.809 0 00-8.713 0l3.76-6.028a.69.69 0 011.2 0l3.753 6.028z" fill="#B49ACA"/></svg>